<svg xmlns="http://www.w3.org/2000/svg" viewBox="0 0 298.05 148.01"><defs><style>.cls-1{fill:#ff9925;}</style></defs><g id="Layer_2" data-name="Layer 2"><g id="Layer_1-2" data-name="Layer 1"><path d="M112.18,124.2h-4.07V97.32h4.07v11.52h4.62V97.32h4.14V124.2H116.8V112.68h-4.62Z"/><path d="M140,124.2h-4.1l-.7-4.88h-5l-.71,4.88h-3.73l4.14-26.88h5.95Zm-9.28-8.53h3.92l-1.92-13.59h-.07Z"/><path d="M148.57,104.73h-.07V124.2h-3.66V97.32h5.1l4.1,16.09h.08V97.32h3.62V124.2h-4.18Z"/><path d="M163.62,97.32h6.44c4.06,0,6.06,2.34,6.06,6.64v13.59c0,4.3-2,6.65-6.06,6.65h-6.44Zm4.07,3.84v19.2H170c1.3,0,2.07-.69,2.07-2.61v-14c0-1.92-.77-2.61-2.07-2.61Z"/><path d="M184.92,115.29l-5.14-18H184l3.07,12.25h.07l3.07-12.25h3.88l-5.14,18v8.91h-4.07Z"/><path class="cls-1" d="M210,114.17v3.58c0,4.3-2.07,6.75-6.07,6.75s-6.06-2.45-6.06-6.75v-14c0-4.3,2.07-6.76,6.06-6.76s6.07,2.46,6.07,6.76v2.61h-3.85V103.5c0-1.92-.81-2.65-2.11-2.65s-2.1.73-2.1,2.65V118c0,1.92.81,2.62,2.1,2.62s2.11-.7,2.11-2.62v-3.84Z"/><path class="cls-1" d="M223.9,124.2a8.68,8.68,0,0,1-.37-3.31v-4.22c0-2.5-.81-3.42-2.66-3.42h-1.41v11H215.4V97.32h6.13c4.22,0,6,2,6,6.18v2.11c0,2.77-.85,4.53-2.66,5.42v.07c2,.89,2.7,2.88,2.7,5.69v4.14a8.16,8.16,0,0,0,.44,3.27Zm-4.44-23v8.25h1.59c1.52,0,2.44-.69,2.44-2.84v-2.65c0-1.92-.62-2.76-2.07-2.76Z"/><path class="cls-1" d="M246.38,124.2h-4.1l-.7-4.88h-5l-.71,4.88h-3.73l4.14-26.88h6Zm-9.28-8.53H241l-1.92-13.59H239Z"/><path class="cls-1" d="M254.93,104.73h-.07V124.2H251.2V97.32h5.1l4.1,16.09h.07V97.32h3.63V124.2h-4.18Z"/><path class="cls-1" d="M274.05,108.65h5.58v3.83h-5.58v7.88h7v3.84H270V97.32h11.09v3.84h-7Z"/><path class="cls-1" d="M292,97c4,0,6,2.46,6,6.76v.84h-3.84V103.5c0-1.92-.74-2.65-2-2.65s-2,.73-2,2.65.81,3.42,3.47,5.84c3.41,3.11,4.48,5.33,4.48,8.41,0,4.3-2.07,6.75-6.07,6.75s-6.06-2.45-6.06-6.75v-1.66h3.85V118c0,1.92.81,2.62,2.1,2.62s2.11-.7,2.11-2.62-.81-3.41-3.47-5.83c-3.41-3.11-4.48-5.34-4.48-8.41C286,99.47,288.07,97,292,97Z"/><path class="cls-1" d="M101.71,97.24h0a1,1,0,0,1-.78-.4L31,.4A1,1,0,0,0,29.76.14l-14,8.37a.94.94,0,0,0-.34,1.29L19.54,17a.85.85,0,0,1,.13.47v42a1,1,0,0,1-1,1H15.79a1,1,0,0,0-.95,1.09L17.92,83a1,1,0,0,0,.95.82h.8v6.49a.94.94,0,0,1-.52.84,10.15,10.15,0,0,0-5.9,9.34,10,10,0,0,0,2.7,7.17,1,1,0,0,1-.07,1.38L.34,122.34A1,1,0,0,0,1,124H3.19a1,1,0,0,0,.63-.23l15.52-13.26a1,1,0,0,1,.93-.18,12.74,12.74,0,0,0,4.09.7,9.66,9.66,0,0,0,4-.89,1,1,0,0,1,1,.12l16.84,13.53a1,1,0,0,0,.61.21l2,0a1.07,1.07,0,0,0,.68-1.9L32.26,108.3a.94.94,0,0,1-.2-1.27,10.23,10.23,0,0,0,1.75-6,3.38,3.38,0,0,0-6.75,0,5.25,5.25,0,0,1-.13,1.2,1,1,0,0,1-1.54.51h0a1.7,1.7,0,0,0-2.17,0l-.74.63a1,1,0,0,1-1.22,0,3.53,3.53,0,0,1-1.24-3c0-3,3-3.76,3.6-3.86a3.36,3.36,0,0,0,2.81-3.31V84.81a1,1,0,0,1,1-1h2a1,1,0,0,0,.95-.76l4.34-21.53a1,1,0,0,0-1-1.14h-3a1,1,0,0,1-1-1V40a1,1,0,0,1,1.82-.44l38.6,73.64a.93.93,0,0,1,.11.44v2.7a1,1,0,0,0,1,1H82.88a1,1,0,0,1,1,1v4.79a1,1,0,0,0,1,1h16.91ZM26.42,59.47a1,1,0,0,1-1,1H24a1,1,0,0,1-1-1V27.33a1,1,0,0,1,1.81-.44l1.45,2.71a.88.88,0,0,1,.11.45Zm5.77-47.85-2.31,12a1,1,0,0,1-1.8.27l-4.14-7.8a1,1,0,0,1,.32-1.24l6.46-4.21A1,1,0,0,1,32.19,11.62Zm1.6,20.17,2.94-13.15a1,1,0,0,1,1.77-.27l4.79,8.22A1,1,0,0,1,43,27.87L35.25,32.8A1,1,0,0,1,33.79,31.79Zm13.86,4.59L44.85,49a1,1,0,0,1-1.78.25l-4.35-8A1,1,0,0,1,39.05,40l7.13-4.6A1,1,0,0,1,47.65,36.38ZM49.13,55l2.73-13a1,1,0,0,1,1.73-.35L59,49.47a1,1,0,0,1-.27,1.34L50.59,56A1,1,0,0,1,49.13,55Zm6.33,18.46L51.58,66a1,1,0,0,1,.32-1.22l9-6.11a1,1,0,0,1,1.45,1.12l-5.12,13.6A1,1,0,0,1,55.46,73.45Zm6.78,3.86L67.6,63.69a1,1,0,0,1,1.67-.22l5.62,7.66,0,.06L63.66,78.46A1,1,0,0,1,62.24,77.31ZM70,95.25a1,1,0,0,1-1.72.1l-4.5-7.86a1,1,0,0,1,.28-1.24l11.15-7.9a1,1,0,0,1,1.45,1.15Zm21-.72-14.55,8.32a1,1,0,0,1-1.35-1.23l8-17.14a1,1,0,0,1,1.65-.16l6.53,8.82A1,1,0,0,1,91,94.53Z"/><path class="cls-1" d="M4.59,142.25H2.53a.82.82,0,0,0-.82.82v4.12a.82.82,0,0,0,.82.82H47a.82.82,0,0,0,.82-.82v-4.12a.82.82,0,0,0-.82-.82H42.83a.82.82,0,0,1-.82-.82v-7a.82.82,0,0,1,.82-.82H47a.82.82,0,0,0,.82-.82v-4.11a.82.82,0,0,0-.82-.82H2.53a.81.81,0,0,0-.82.82v4.11a.81.81,0,0,0,.82.82H6.64a.82.82,0,0,1,.82.82v7a.82.82,0,0,1-.82.82Z"/></g></g></svg>